<svg xmlns="http://www.w3.org/2000/svg" xmlns:svg="http://www.w3.org/2000/svg" id="svg2" width="709.341" height="446.859" version="1.1"><defs id="defs4"><marker id="Arrow1Mend" orient="auto" refX="0" refY="0" style="overflow:visible"><path id="path3987" d="M 0.0,0.0 L 5.0,-5.0 L -12.5,0.0 L 5.0,5.0 L 0.0,0.0 z" transform="scale(0.4) rotate(180) translate(10,0)" style="fill-rule:evenodd;stroke:#000;stroke-width:1pt"/></marker><marker id="Arrow1Lend" orient="auto" refX="0" refY="0" style="overflow:visible"><path id="path3981" d="M 0.0,0.0 L 5.0,-5.0 L -12.5,0.0 L 5.0,5.0 L 0.0,0.0 z" transform="scale(0.8) rotate(180) translate(12.5,0)" style="fill-rule:evenodd;stroke:#000;stroke-width:1pt"/></marker><marker id="SquareL" orient="auto" refX="0" refY="0" style="overflow:visible"><path id="path4048" d="M -5,-5 -5,5 5,5 5,-5 -5,-5 z" transform="scale(0.8,0.8)" style="fill-rule:evenodd;stroke:#000;stroke-width:1pt"/></marker><marker id="Arrow2Lend" orient="auto" refX="0" refY="0" style="overflow:visible"><path id="path3999" d="M 8.7185878,4.0337352 -2.2072895,0.01601326 8.7185884,-4.0017078 c -1.7454984,2.3720609 -1.7354408,5.6174519 -6e-7,8.035443 z" transform="matrix(-1.1,0,0,-1.1,-1.1,0)" style="fill-rule:evenodd;stroke-width:.625;stroke-linejoin:round"/></marker><marker id="Arrow2Mstart" orient="auto" refX="0" refY="0" style="overflow:visible"><path id="path4002" d="M 8.7185878,4.0337352 -2.2072895,0.01601326 8.7185884,-4.0017078 c -1.7454984,2.3720609 -1.7354408,5.6174519 -6e-7,8.035443 z" transform="scale(0.6,0.6)" style="fill-rule:evenodd;stroke-width:.625;stroke-linejoin:round"/></marker><marker id="Arrow1Mend-6" orient="auto" refX="0" refY="0" style="overflow:visible"><path id="path3987-0" d="M 0,0 5,-5 -12.5,0 5,5 0,0 z" transform="matrix(-0.4,0,0,-0.4,-4,0)" style="fill-rule:evenodd;stroke:#000;stroke-width:1pt"/></marker></defs><metadata id="metadata7"/><g id="layer1" transform="translate(89.851124,-342.68585)"><rect style="fill:#fcfcfc;fill-opacity:1;stroke:#000;stroke-width:4.33870029;stroke-miterlimit:4;stroke-opacity:1;stroke-dasharray:none" id="rect2989" width="274.433" height="161.296" x="322.888" y="365.097"/><text style="font-size:13.62229443px;font-style:normal;font-weight:400;line-height:125%;letter-spacing:0;word-spacing:0;fill:#000;fill-opacity:1;stroke:none;font-family:Sans" id="text3759" x="361.691" y="387.824" xml:space="preserve"><tspan id="tspan3761" x="361.691" y="387.824">node1.example.com:</tspan><tspan id="tspan3763" x="361.691" y="404.852">IP 123.1.1.2</tspan></text><g id="g3775" transform="matrix(1.1781067,0,0,1.1781067,-60.204572,-141.56096)"><rect id="rect3765" width="130.31" height="72.731" x="412.142" y="477.585" style="fill:#f0f0f0;fill-opacity:1;stroke:#000;stroke-width:1;stroke-miterlimit:4;stroke-opacity:1;stroke-dasharray:none"/></g><text style="font-size:12.87537384px;font-style:normal;font-weight:400;line-height:125%;letter-spacing:0;word-spacing:0;fill:#000;fill-opacity:1;stroke:none;font-family:Sans" id="text3767" x="431.24" y="437.907" xml:space="preserve"><tspan id="tspan3771" x="431.24" y="437.907">Web server container</tspan></text><path style="fill:#f0f0f0;fill-opacity:1;stroke:#000;stroke-width:.3859812;stroke-miterlimit:4;stroke-opacity:1;stroke-dasharray:none" id="path3784" d="m 430.32499,524.5575 c 0,3.62629 -2.93969,6.56599 -6.56599,6.56599 -3.62629,0 -6.56599,-2.9397 -6.56599,-6.56599 0,-3.6263 2.9397,-6.566 6.56599,-6.566 3.6263,0 6.56599,2.9397 6.56599,6.566 z" transform="matrix(3.7250146,0,0,1.8019376,-1153.2545,-472.20046)"/><text style="font-size:13.6166153px;font-style:normal;font-weight:400;line-height:125%;letter-spacing:0;word-spacing:0;fill:#000;fill-opacity:1;stroke:none;font-family:Sans" id="text3786" x="407.852" y="478.166" xml:space="preserve"><tspan id="tspan3788" x="407.852" y="478.166">8080</tspan></text><path style="fill:#f0f0f0;fill-opacity:1;stroke:#000;stroke-width:.3859812;stroke-miterlimit:4;stroke-opacity:1;stroke-dasharray:none" id="path3784-4" d="m 430.32499,524.5575 c 0,3.62629 -2.93969,6.56599 -6.56599,6.56599 -3.62629,0 -6.56599,-2.9397 -6.56599,-6.56599 0,-3.6263 2.9397,-6.566 6.56599,-6.566 3.6263,0 6.56599,2.9397 6.56599,6.566 z" transform="matrix(3.7250146,0,0,1.8019376,-1256.2901,-470.68526)"/><text style="font-size:13.6166153px;font-style:normal;font-weight:400;line-height:125%;letter-spacing:0;word-spacing:0;fill:#000;fill-opacity:1;stroke:none;font-family:Sans" id="text3786-8" x="312.816" y="479.682" xml:space="preserve"><tspan id="tspan3788-2" x="312.816" y="479.682">80</tspan></text><path style="fill:none;stroke:#000;stroke-width:1;stroke-linecap:butt;stroke-linejoin:miter;stroke-miterlimit:4;stroke-opacity:1;stroke-dasharray:none;marker-start:none" id="path3854" d="m 346.66571,474.1751 54.14092,-0.79617"/><rect style="fill:#fcfcfc;fill-opacity:1;stroke:#000;stroke-width:4.33870029;stroke-miterlimit:4;stroke-opacity:1;stroke-dasharray:none" id="rect2989-9" width="274.433" height="161.296" x="322.531" y="606.08"/><text style="font-size:13.62229443px;font-style:normal;font-weight:400;line-height:125%;letter-spacing:0;word-spacing:0;fill:#000;fill-opacity:1;stroke:none;font-family:Sans" id="text3759-9" x="361.334" y="628.806" xml:space="preserve"><tspan id="tspan3761-0" x="361.334" y="628.806">node2.example.com:</tspan><tspan id="tspan5387" x="361.334" y="645.834">IP 123.1.1.3</tspan></text><path style="fill:#f0f0f0;fill-opacity:1;stroke:#000;stroke-width:.3859812;stroke-miterlimit:4;stroke-opacity:1;stroke-dasharray:none" id="path3784-4-7" d="m 430.32499,524.5575 c 0,3.62629 -2.93969,6.56599 -6.56599,6.56599 -3.62629,0 -6.56599,-2.9397 -6.56599,-6.56599 0,-3.6263 2.9397,-6.566 6.56599,-6.566 3.6263,0 6.56599,2.9397 6.56599,6.566 z" transform="matrix(3.7250146,0,0,1.8019376,-1256.6472,-229.70298)"/><text style="font-size:13.6166153px;font-style:normal;font-weight:400;line-height:125%;letter-spacing:0;word-spacing:0;fill:#000;fill-opacity:1;stroke:none;font-family:Sans" id="text3786-8-5" x="312.459" y="720.664" xml:space="preserve"><tspan id="tspan3788-2-9" x="312.459" y="720.664">80</tspan></text><text style="font-size:12.87537384px;font-style:normal;font-weight:400;line-height:125%;letter-spacing:0;word-spacing:0;fill:#000;fill-opacity:1;stroke:none;font-family:Sans" id="text3767-8" x="478.881" y="475.734" xml:space="preserve"><tspan id="tspan3771-7" x="478.881" y="475.734">httpd</tspan></text><path style="fill:none;stroke:#000;stroke-width:1px;stroke-linecap:butt;stroke-linejoin:miter;stroke-opacity:1" id="path4629"/><path style="fill:none;stroke:#000;stroke-width:.71814018;stroke-linecap:butt;stroke-linejoin:miter;stroke-miterlimit:4;stroke-opacity:1;stroke-dasharray:none;marker-end:url(#SquareL)" id="path5197" d="m 449.95907,472.93361 22.16437,0"/><text style="font-size:15.28261662px;font-style:normal;font-weight:400;line-height:125%;letter-spacing:0;word-spacing:0;fill:#000;fill-opacity:1;stroke:none;font-family:Sans" id="text5393" x="-67.636" y="565.011" xml:space="preserve"><tspan id="tspan5395" x="-67.636" y="565.011">$ host -t A www.example.com</tspan><tspan id="tspan5397" x="-67.636" y="584.115">www.example.com has address 123.1.1.2</tspan><tspan id="tspan5399" x="-67.636" y="603.218">www.example.com has address 123.1.1.3</tspan><tspan id="tspan7590" x="-67.636" y="622.321">$ curl http://www.example.com:80/</tspan></text><path style="fill:none;stroke:#000;stroke-width:1px;stroke-linecap:butt;stroke-linejoin:miter;stroke-opacity:1;marker-end:url(#Arrow1Mend)" id="path6209" d="m 315.00602,704.54492 0,-218.57142"/><path style="fill:none;stroke:red;stroke-width:1;stroke-linecap:butt;stroke-linejoin:miter;stroke-miterlimit:4;stroke-opacity:1;stroke-dasharray:none;stroke-dashoffset:0;marker-end:url(#Arrow1Lend)" id="path6997" d="M 119.28571,199.00192 120,110.4305 l 441.42857,0" transform="translate(-89.851124,342.68585)"/><path style="fill:none;stroke:red;stroke-width:1;stroke-linecap:butt;stroke-linejoin:miter;stroke-miterlimit:4;stroke-opacity:1;stroke-dasharray:none;stroke-dashoffset:0;marker-end:url(#Arrow1Lend)" id="path7191" d="m 118.57143,292.57336 0,67.14285 281.42857,0 10e-6,-206.42857 161.42857,-1.42856" transform="translate(-89.851124,342.68585)"/></g></svg>